<svg width="180" height="180" viewBox="0 0 180 180" fill="none" xmlns="http://www.w3.org/2000/svg">
  <defs>
    <linearGradient id="shield" x1="42" y1="28" x2="138" y2="152" gradientUnits="userSpaceOnUse">
      <stop stop-color="#38BDF8"/>
      <stop offset="1" stop-color="#0EA5E9"/>
    </linearGradient>
    <linearGradient id="shine" x1="58" y1="42" x2="118" y2="126" gradientUnits="userSpaceOnUse">
      <stop stop-color="#BAE6FD" stop-opacity="0.95"/>
      <stop offset="1" stop-color="#E0F2FE" stop-opacity="0.65"/>
    </linearGradient>
  </defs>
  <rect width="180" height="180" rx="36" fill="#0A0E27"/>
  <path d="M90 28L132 44V82C132 109.5 115.5 127.5 90 150C64.5 127.5 48 109.5 48 82V44L90 28Z" fill="url(#shield)"/>
  <path d="M90 44L111 53V79.5C111 95.5 101.8 106.8 90 116.7C78.2 106.8 69 95.5 69 79.5V53L90 44Z" fill="url(#shine)"/>
  <path d="M64 62L116 118" stroke="#E0F2FE" stroke-width="14" stroke-linecap="round"/>
  <path d="M116 62L64 118" stroke="#E0F2FE" stroke-width="14" stroke-linecap="round"/>
</svg>